<?xml version="1.0" encoding="UTF-8"?>
<svg id="Camada_1" xmlns="http://www.w3.org/2000/svg" version="1.1" width="1200" height="630" viewBox="-170 -10 1200 630">
  <!-- Generator: Adobe Illustrator 29.8.1, SVG Export Plug-In . SVG Version: 2.1.1 Build 2)  -->
  <defs>
    <linearGradient id="heroGradient" x1="0%" y1="0%" x2="100%" y2="100%">
      <stop offset="0%" style="stop-color:#0f172a;stop-opacity:1" />
      <stop offset="50%" style="stop-color:#1e3a8a;stop-opacity:1" />
      <stop offset="100%" style="stop-color:#0f172a;stop-opacity:1" />
    </linearGradient>
    <style>
      .st0 {
        fill: #b8b6b7;
      }

      .st1 {
        fill: #fff;
      }

      .st2 {
        fill: #faba1e;
      }

      .st3 {
        fill: #fff;
      }

      .st4 {
        fill: #fff;
      }
    </style>
  </defs>
  <rect x="-170" y="-10" width="1200" height="630" fill="url(#heroGradient)" />
  <g>
    <g>
      <path class="st4" d="M93.68,361.55h-58.97c-4.04,0-7.19-1.13-9.44-3.38-2.25-2.25-3.38-5.4-3.38-9.44v-68.76h26.34v56.18c0,3.42,1.71,5.13,5.13,5.13h40.33v20.28Z"/>
      <path class="st4" d="M99.5,361.55v-68.76c0-4.04,1.12-7.19,3.38-9.44s5.4-3.38,9.44-3.38h46.04c8.86,0,14.96,2.27,18.3,6.82,3.34,4.54,5.01,11.52,5.01,20.92,0,19.35-6.06,29.02-18.18,29.02h-3.5v.47l23.31,24.36h-31.7l-15.73-21.21c-.23-.39-.74-1.07-1.51-2.04-.78-.97-1.32-1.69-1.63-2.16-.31-.47-.7-1.11-1.17-1.92-.47-.82-.8-1.63-.99-2.45-.2-.82-.29-1.65-.29-2.51v-1.75c0-6.14,3.92-9.21,11.77-9.21h3.96c3.5,0,5.92-.66,7.28-1.98,1.36-1.32,2.04-3.73,2.04-7.23s-.66-5.75-1.98-6.99c-1.32-1.24-3.77-1.86-7.34-1.86h-15.04c-3.42,0-5.13,1.71-5.13,5.13v56.18h-26.34Z"/>
      <path class="st2" d="M303.57,312.13l-12.59,39.39c-.78,2.41-1.57,4.29-2.39,5.65-.82,1.36-2.33,2.58-4.55,3.67-2.21,1.09-5.15,1.63-8.8,1.63-5.21,0-8.84-.91-10.9-2.74-2.06-1.82-3.67-4.56-4.84-8.22l-12.59-39.39c-.62-1.94-1.13-2.91-1.51-2.91-.7,0-1.05.89-1.05,2.68l.82,49.65h-26.57v-68.18c0-9.56,6.68-14.34,20.04-14.34,2.17,0,4.1.14,5.77.41,1.67.27,3.56.82,5.65,1.63,2.1.82,3.96,2.2,5.6,4.14,1.63,1.94,2.95,4.39,3.96,7.34l13.17,39.62c.7,2.49,1.52,3.73,2.45,3.73s1.75-1.24,2.45-3.73l13.17-39.62c1.01-2.95,2.33-5.4,3.96-7.34,1.63-1.94,3.5-3.32,5.59-4.14,2.1-.82,4-1.36,5.71-1.63,1.71-.27,3.61-.41,5.71-.41,13.36,0,20.05,4.78,20.05,14.34v68.18h-26.57l.93-49.65c0-1.79-.35-2.68-1.05-2.68-.47,0-1.01.97-1.63,2.91Z"/>
      <path class="st2" d="M364.7,280.6c5.32-1.05,12.45-1.57,21.39-1.57s16.06.53,21.39,1.57c5.32,1.05,9.85,3.11,13.58,6.18,3.73,3.07,6.31,7.28,7.75,12.65,1.44,5.36,2.16,12.47,2.16,21.33s-.72,15.97-2.16,21.33c-1.44,5.36-4.02,9.58-7.75,12.65-3.73,3.07-8.26,5.13-13.58,6.18-5.32,1.05-12.45,1.57-21.39,1.57s-16.06-.53-21.39-1.57c-5.32-1.05-9.85-3.11-13.58-6.18-3.73-3.07-6.31-7.28-7.75-12.65s-2.16-12.47-2.16-21.33.72-15.97,2.16-21.33,4.02-9.58,7.75-12.65c3.73-3.07,8.25-5.13,13.58-6.18ZM372.04,304.21c-2.53,3.26-3.79,8.78-3.79,16.55s1.26,13.29,3.79,16.55c2.52,3.26,7.21,4.9,14.04,4.9s11.52-1.63,14.04-4.9c2.52-3.26,3.79-8.78,3.79-16.55s-1.26-13.29-3.79-16.55c-2.53-3.26-7.21-4.9-14.04-4.9s-11.52,1.63-14.04,4.9Z"/>
      <path class="st2" d="M470.05,337.89c2.29,2.25,5.84,3.38,10.66,3.38s8.37-1.13,10.66-3.38c2.29-2.25,3.44-5.94,3.44-11.07v-46.85h26.34v48.95c0,12.28-3.36,20.94-10.08,25.99-6.72,5.05-16.84,7.58-30.36,7.58s-23.64-2.52-30.36-7.58c-6.72-5.05-10.08-13.71-10.08-25.99v-48.95h26.34v46.85c0,5.13,1.15,8.82,3.44,11.07Z"/>
      <path class="st2" d="M532.82,361.55v-68.76c0-4.04,1.12-7.19,3.38-9.44s5.4-3.38,9.44-3.38h46.04c8.86,0,14.96,2.27,18.3,6.82,3.34,4.54,5.01,11.52,5.01,20.92,0,19.35-6.06,29.02-18.18,29.02h-3.5v.47l23.31,24.36h-31.7l-15.73-21.21c-.23-.39-.74-1.07-1.51-2.04-.78-.97-1.32-1.69-1.63-2.16-.31-.47-.7-1.11-1.17-1.92-.47-.82-.8-1.63-.99-2.45-.2-.82-.29-1.65-.29-2.51v-1.75c0-6.14,3.92-9.21,11.77-9.21h3.96c3.5,0,5.92-.66,7.28-1.98,1.36-1.32,2.04-3.73,2.04-7.23s-.66-5.75-1.98-6.99c-1.32-1.24-3.77-1.86-7.34-1.86h-15.04c-3.42,0-5.13,1.71-5.13,5.13v56.18h-26.34Z"/>
      <path class="st2" d="M616.61,361.55l30.19-72.61c1.47-3.42,3.5-5.92,6.06-7.52,2.56-1.59,6.76-2.39,12.59-2.39,4.74,0,8.6.62,11.6,1.86,2.99,1.25,5.34,3.92,7.05,8.04l30.19,72.61h-27.74l-6.41-16.78h-29.37l-6.41,16.78h-27.74ZM664.39,305.49l-7.34,20.63h16.78l-7.34-20.63c-.08-.08-.18-.23-.29-.47-.12-.23-.2-.45-.23-.64-.04-.19-.12-.35-.23-.47-.12-.12-.21-.18-.29-.18l-1.05,1.75Z"/>
      <path class="st2" d="M738.92,280.6c5.32-1.05,12.45-1.57,21.39-1.57s16.06.53,21.39,1.57c5.32,1.05,9.85,3.11,13.58,6.18,3.73,3.07,6.31,7.28,7.75,12.65s2.16,12.47,2.16,21.33-.72,15.97-2.16,21.33-4.02,9.58-7.75,12.65c-3.73,3.07-8.26,5.13-13.58,6.18-5.32,1.05-12.45,1.57-21.39,1.57s-16.06-.53-21.39-1.57c-5.32-1.05-9.85-3.11-13.58-6.18-3.73-3.07-6.31-7.28-7.75-12.65s-2.16-12.47-2.16-21.33.72-15.97,2.16-21.33,4.02-9.58,7.75-12.65c3.73-3.07,8.25-5.13,13.58-6.18ZM746.27,304.21c-2.53,3.26-3.79,8.78-3.79,16.55s1.26,13.29,3.79,16.55c2.52,3.26,7.21,4.9,14.04,4.9s11.52-1.63,14.04-4.9c2.52-3.26,3.79-8.78,3.79-16.55s-1.26-13.29-3.79-16.55c-2.53-3.26-7.21-4.9-14.04-4.9s-11.52,1.63-14.04,4.9Z"/>
    </g>
    <g>
      <path class="st3" d="M36.09,391.08c5.26,0,9.79,2.72,11.71,7.78h-4.97c-1.34-2.75-3.73-4.06-6.74-4.06-5,0-8.63,3.65-8.63,9.5s3.63,9.53,8.63,9.53c3.01,0,5.4-1.3,6.74-4.06h4.97c-1.92,5.06-6.45,7.75-11.71,7.75-7.1,0-12.87-5.44-12.87-13.22s5.76-13.22,12.87-13.22Z"/>
      <path class="st3" d="M62.16,417.63c-5.69,0-10-4.17-10-10.61s4.49-10.58,10.18-10.58,10.19,4.13,10.19,10.58-4.64,10.61-10.37,10.61ZM62.16,413.95c3.08,0,6.13-2.27,6.13-6.93s-2.94-6.89-6.02-6.89-5.91,2.23-5.91,6.89,2.68,6.93,5.8,6.93Z"/>
      <path class="st3" d="M86.15,417.63c-5.69,0-10-4.17-10-10.61s4.49-10.58,10.18-10.58,10.19,4.13,10.19,10.58-4.64,10.61-10.37,10.61ZM86.15,413.95c3.08,0,6.13-2.27,6.13-6.93s-2.94-6.89-6.02-6.89-5.91,2.23-5.91,6.89,2.68,6.93,5.8,6.93Z"/>
      <path class="st3" d="M105.62,417.3h-4.13v-20.52h4.13v2.98c1.16-2.05,3.15-3.31,5.98-3.31v4.39h-1.05c-3.04,0-4.93,1.3-4.93,5.66v10.8Z"/>
      <path class="st3" d="M124.36,396.44c2.61,0,5.36,1.27,6.89,3.2v-9.91h4.17v27.56h-4.17v-3.09c-1.27,1.86-3.66,3.43-6.92,3.43-5.26,0-9.42-4.36-9.42-10.69s4.17-10.5,9.46-10.5ZM125.2,400.13c-3.08,0-6.05,2.38-6.05,6.82s2.97,7,6.05,7,6.05-2.49,6.05-6.93-2.94-6.89-6.05-6.89Z"/>
      <path class="st3" d="M150.32,417.63c-5.73,0-9.97-4.17-9.97-10.61s4.06-10.58,9.97-10.58,9.71,4.06,9.71,10.09c0,.71-.04,1.38-.15,2.09h-15.26c.29,3.39,2.65,5.44,5.69,5.44,2.54,0,3.95-1.27,4.71-2.87h4.46c-1.12,3.58-4.28,6.44-9.17,6.44ZM144.66,405.2h11.06c-.07-3.17-2.5-5.18-5.58-5.18-2.79,0-5.04,1.94-5.47,5.18Z"/>
      <path class="st3" d="M179.14,405.83c0-3.76-1.99-5.7-5-5.7s-5.04,1.94-5.04,5.7v11.47h-4.13v-20.52h4.13v2.35c1.34-1.68,3.55-2.68,5.95-2.68,4.67,0,8.19,3.02,8.19,8.75v12.1h-4.1v-11.47Z"/>
      <path class="st3" d="M197.41,396.44c3.37,0,5.69,1.64,6.92,3.31v-2.98h4.17v20.52h-4.17v-3.05c-1.27,1.75-3.66,3.39-6.99,3.39-5.18,0-9.35-4.36-9.35-10.69s4.17-10.5,9.42-10.5ZM198.28,400.13c-3.08,0-6.05,2.38-6.05,6.82s2.97,7,6.05,7,6.05-2.49,6.05-6.93-2.94-6.89-6.05-6.89Z"/>
      <path class="st3" d="M223.22,396.44c4.89,0,8.08,2.5,9.21,6.82h-4.46c-.69-1.97-2.28-3.24-4.75-3.24-3.33,0-5.55,2.53-5.55,7s2.21,7.04,5.55,7.04c2.47,0,3.99-1.12,4.75-3.24h4.46c-1.01,3.69-3.77,6.33-7.97,6.74v1.53c2.68,0,4.71,1.34,4.71,3.91s-2.03,4.06-4.6,4.06h-4.79v-2.68h3.95c1.27,0,2.03-.26,2.03-1.38s-.76-1.38-2.03-1.38h-1.99v-4.1c-4.93-.63-8.3-4.62-8.3-10.5,0-6.41,4.06-10.58,9.79-10.58Z"/>
      <path class="st3" d="M245.48,396.44c3.37,0,5.69,1.64,6.92,3.31v-2.98h4.17v20.52h-4.17v-3.05c-1.27,1.75-3.66,3.39-6.99,3.39-5.18,0-9.35-4.36-9.35-10.69s4.17-10.5,9.42-10.5ZM246.35,400.13c-3.08,0-6.05,2.38-6.05,6.82s2.97,7,6.05,7,6.05-2.49,6.05-6.93-2.94-6.89-6.05-6.89ZM245.19,390.3c1.96,0,2.75,1.64,4.2,1.64.8,0,1.41-.48,1.56-1.56h2.32c-.4,2.94-1.99,4.36-4.1,4.36-1.96,0-2.75-1.68-4.2-1.68-.8,0-1.41.52-1.56,1.6h-2.32c.4-2.94,1.99-4.36,4.1-4.36Z"/>
      <path class="st3" d="M271.54,417.63c-5.69,0-10-4.17-10-10.61s4.49-10.58,10.18-10.58,10.19,4.13,10.19,10.58-4.64,10.61-10.37,10.61ZM271.54,413.95c3.08,0,6.13-2.27,6.13-6.93s-2.94-6.89-6.02-6.89-5.91,2.23-5.91,6.89,2.68,6.93,5.8,6.93Z"/>
      <path class="st3" d="M309.06,397.19c.07-1.9-.98-2.91-2.54-2.91s-2.68,1.12-2.68,2.5.76,2.57,2.54,4.54l6.67,6.82,2.57-4.36h4.46l-3.26,5.74c-.29.52-.62,1.04-.91,1.53l6.13,6.26h-5.4l-3.12-3.2c-2.43,2.49-5.22,3.69-8.74,3.69-5.44,0-9.06-3.09-9.06-7.93,0-3.5,1.92-6.44,5.91-8.12-1.41-1.75-1.92-3.13-1.92-4.95,0-3.39,2.68-5.96,7-5.96s6.74,2.83,6.49,6.37h-4.13ZM310.8,411.3l-6.67-6.89c-2.94,1.19-4.28,2.98-4.28,5.29,0,2.5,1.96,4.47,4.93,4.47,2.36,0,4.28-.97,6.02-2.87Z"/>
      <path class="st3" d="M335.92,391.42h14.83v3.46h-10.69v7.64h8.34v3.46h-8.34v11.32h-4.13v-25.88Z"/>
      <path class="st3" d="M364.12,417.63c-5.69,0-10-4.17-10-10.61s4.49-10.58,10.18-10.58,10.19,4.13,10.19,10.58-4.64,10.61-10.37,10.61ZM364.12,413.95c3.08,0,6.13-2.27,6.13-6.93s-2.94-6.89-6.02-6.89-5.91,2.23-5.91,6.89,2.68,6.93,5.8,6.93Z"/>
      <path class="st3" d="M383.59,417.3h-4.13v-20.52h4.13v2.98c1.16-2.05,3.15-3.31,5.98-3.31v4.39h-1.05c-3.04,0-4.93,1.3-4.93,5.66v10.8Z"/>
      <path class="st3" d="M422.55,405.83c0-3.76-1.99-5.7-5-5.7s-5.04,1.94-5.04,5.7v11.47h-4.1v-11.47c0-3.76-1.99-5.7-5-5.7s-5.04,1.94-5.04,5.7v11.47h-4.13v-20.52h4.13v2.35c1.34-1.68,3.52-2.68,5.91-2.68,3.15,0,5.8,1.38,7.18,4.06,1.23-2.49,4.06-4.06,6.96-4.06,4.68,0,8.23,3.02,8.23,8.75v12.1h-4.1v-11.47Z"/>
      <path class="st3" d="M440.83,396.44c3.37,0,5.69,1.64,6.92,3.31v-2.98h4.17v20.52h-4.17v-3.05c-1.27,1.75-3.66,3.39-6.99,3.39-5.18,0-9.35-4.36-9.35-10.69s4.17-10.5,9.42-10.5ZM441.7,400.13c-3.08,0-6.05,2.38-6.05,6.82s2.97,7,6.05,7,6.05-2.49,6.05-6.93-2.94-6.89-6.05-6.89Z"/>
      <path class="st3" d="M466.64,396.44c4.89,0,8.08,2.5,9.21,6.82h-4.46c-.69-1.97-2.28-3.24-4.75-3.24-3.33,0-5.55,2.53-5.55,7s2.21,7.04,5.55,7.04c2.47,0,3.99-1.12,4.75-3.24h4.46c-1.01,3.69-3.77,6.33-7.97,6.74v1.53c2.68,0,4.71,1.34,4.71,3.91s-2.03,4.06-4.6,4.06h-4.79v-2.68h3.95c1.27,0,2.03-.26,2.03-1.38s-.76-1.38-2.03-1.38h-1.99v-4.1c-4.93-.63-8.3-4.62-8.3-10.5,0-6.41,4.06-10.58,9.79-10.58Z"/>
      <path class="st3" d="M488.9,396.44c3.37,0,5.69,1.64,6.92,3.31v-2.98h4.17v20.52h-4.17v-3.05c-1.27,1.75-3.66,3.39-6.99,3.39-5.18,0-9.35-4.36-9.35-10.69s4.17-10.5,9.42-10.5ZM489.77,400.13c-3.08,0-6.05,2.38-6.05,6.82s2.97,7,6.05,7,6.05-2.49,6.05-6.93-2.94-6.89-6.05-6.89ZM488.61,390.3c1.96,0,2.75,1.64,4.2,1.64.8,0,1.41-.48,1.56-1.56h2.32c-.4,2.94-1.99,4.36-4.1,4.36-1.96,0-2.75-1.68-4.2-1.68-.8,0-1.41.52-1.56,1.6h-2.32c.4-2.94,1.99-4.36,4.1-4.36Z"/>
      <path class="st3" d="M514.96,417.63c-5.69,0-10-4.17-10-10.61s4.49-10.58,10.18-10.58,10.19,4.13,10.19,10.58-4.64,10.61-10.37,10.61ZM514.96,413.95c3.08,0,6.13-2.27,6.13-6.93s-2.94-6.89-6.02-6.89-5.91,2.23-5.91,6.89,2.68,6.93,5.8,6.93Z"/>
      <path class="st3" d="M549.18,417.63c-5.73,0-9.97-4.17-9.97-10.61s4.06-10.58,9.97-10.58,9.71,4.06,9.71,10.09c0,.71-.04,1.38-.15,2.09h-15.26c.29,3.39,2.65,5.44,5.69,5.44,2.54,0,3.95-1.27,4.71-2.87h4.46c-1.12,3.58-4.28,6.44-9.17,6.44ZM543.52,405.2h11.06c-.07-3.17-2.5-5.18-5.58-5.18-2.79,0-5.04,1.94-5.47,5.18Z"/>
      <path class="st3" d="M592.13,405.83c0-3.76-1.99-5.7-5-5.7s-5.04,1.94-5.04,5.7v11.47h-4.1v-11.47c0-3.76-1.99-5.7-5-5.7s-5.04,1.94-5.04,5.7v11.47h-4.13v-20.52h4.13v2.35c1.34-1.68,3.52-2.68,5.91-2.68,3.15,0,5.8,1.38,7.18,4.06,1.23-2.49,4.06-4.06,6.96-4.06,4.68,0,8.23,3.02,8.23,8.75v12.1h-4.1v-11.47Z"/>
      <path class="st3" d="M620.95,417.56c-5.04,0-8.92-2.83-8.92-7.41h4.42c.18,2.12,1.63,3.84,4.5,3.84s4.53-1.6,4.53-3.8c0-6.26-13.38-2.2-13.38-11.73,0-4.54,3.52-7.37,8.66-7.37,4.82,0,8.23,2.61,8.59,7.04h-4.57c-.15-1.75-1.63-3.35-4.24-3.43-2.39-.07-4.24,1.12-4.24,3.61,0,5.85,13.34,2.2,13.34,11.66,0,3.87-3.08,7.6-8.7,7.6Z"/>
      <path class="st3" d="M644.08,417.63c-5.69,0-10-4.17-10-10.61s4.49-10.58,10.18-10.58,10.19,4.13,10.19,10.58-4.64,10.61-10.37,10.61ZM644.08,413.95c3.08,0,6.13-2.27,6.13-6.93s-2.94-6.89-6.02-6.89-5.91,2.23-5.91,6.89,2.68,6.93,5.8,6.93Z"/>
      <path class="st3" d="M659.42,389.74h4.13v27.56h-4.13v-27.56Z"/>
      <path class="st3" d="M677.94,396.44c2.61,0,5.36,1.27,6.89,3.2v-9.91h4.17v27.56h-4.17v-3.09c-1.27,1.86-3.66,3.43-6.92,3.43-5.26,0-9.42-4.36-9.42-10.69s4.17-10.5,9.46-10.5ZM678.77,400.13c-3.08,0-6.05,2.38-6.05,6.82s2.97,7,6.05,7,6.05-2.49,6.05-6.93-2.94-6.89-6.05-6.89Z"/>
      <path class="st3" d="M703.35,396.44c3.37,0,5.69,1.64,6.92,3.31v-2.98h4.17v20.52h-4.17v-3.05c-1.27,1.75-3.66,3.39-6.99,3.39-5.18,0-9.35-4.36-9.35-10.69s4.17-10.5,9.42-10.5ZM704.22,400.13c-3.08,0-6.05,2.38-6.05,6.82s2.97,7,6.05,7,6.05-2.49,6.05-6.93-2.94-6.89-6.05-6.89Z"/>
      <path class="st3" d="M728.84,396.44c2.61,0,5.36,1.27,6.89,3.2v-9.91h4.17v27.56h-4.17v-3.09c-1.27,1.86-3.66,3.43-6.92,3.43-5.26,0-9.42-4.36-9.42-10.69s4.17-10.5,9.46-10.5ZM729.67,400.13c-3.08,0-6.05,2.38-6.05,6.82s2.97,7,6.05,7,6.05-2.49,6.05-6.93-2.94-6.89-6.05-6.89Z"/>
      <path class="st3" d="M764.29,417.3h-4.13v-2.46c-1.31,1.75-3.55,2.76-5.91,2.76-4.68,0-8.23-3.02-8.23-8.75v-12.07h4.1v11.43c0,3.76,1.99,5.7,5,5.7s5.04-1.94,5.04-5.7v-11.43h4.13v20.52Z"/>
      <path class="st3" d="M774.73,417.3h-4.13v-20.52h4.13v2.98c1.16-2.05,3.15-3.31,5.98-3.31v4.39h-1.05c-3.04,0-4.93,1.3-4.93,5.66v10.8Z"/>
      <path class="st3" d="M793.43,396.44c3.37,0,5.69,1.64,6.92,3.31v-2.98h4.17v20.52h-4.17v-3.05c-1.27,1.75-3.66,3.39-6.99,3.39-5.18,0-9.35-4.36-9.35-10.69s4.17-10.5,9.42-10.5ZM794.3,400.13c-3.08,0-6.05,2.38-6.05,6.82s2.97,7,6.05,7,6.05-2.49,6.05-6.93-2.94-6.89-6.05-6.89Z"/>
    </g>
    <path class="st2" d="M632.96,270.44s35.17-32.9,93.45-27.38c43.6,1.12,69.98,28.56,77.28,11.19,0,0,2.25-9.51-15.72-21.3l7.86-10.1s28.63,12.91,23.58,34.8c0,0-4.03,20.58-35.74,10.6-49.51-16.73-93.81-29.48-150.7,2.19Z"/>
    <path class="st4" d="M792.47,220.26l-8.79,10.01-10.2-6.8s-1.94-1.94-3.55.11l-3.12,3.88s-1.62,1.4-3.98-.54l-34.03-23.8s-1.83-1.4,0-3.23l1.72-1.83s1.51-1.83-.65-3.66l-11.95-8.29s-2.05-2.48-6.46,0l-12.17,6.68s-2.48,1.57-4.63.32c0,0-3.13-2.27,0-4.52l15.18-9.26s4.95-4.09,9.91-1.51l15.83,9.26s2.58,1.72,3.77-.32l1.64-2.48s1.81-2.76,4.93-.86l8.08,4.52s3.34,1.94,4.95,0l3.45-3.34s3.55-3.55,8.72-1.08c5.17,2.48,25.41,13.35,25.41,13.35,0,0,4.2,2.26,1.29,5.92,0,0-2.2,3.2-6.68.82l-19.71-10.19s-3.55-2.05-4.74-.97c0,0-2.58,1.29-.22,2.69l15.08,8.46s3.66,1.34,2.05,3.38l-2.48,2.69s-2.8,2.48-.54,3.98l8.72,4.52,3.16,2.07Z"/>
    <path class="st4" d="M702.61,203.92s-2.45-2.4-.17-4.82c0,0,3.16-2.11,5.32,1.19l9.41,18-14.56-14.37Z"/>
    <path class="st4" d="M690.09,208.77s-1.19-3.22,1.9-4.43c0,0,3.75-.56,4.31,3.34l.84,20.29-7.05-19.21Z"/>
    <path class="st4" d="M679.4,203.8s1.24-3.2,4.36-2.05c0,0,3.18,2.07,1,5.36l-12.83,15.74,7.47-19.05Z"/>
    <path class="st4" d="M676.01,192.15s3.34-.79,4.17,2.42c0,0,.1,3.79-3.84,3.87l-20.25-1.63,19.92-4.67Z"/>
    <path class="st4" d="M684.01,182.99s2.38,2.47.03,4.82c0,0-3.21,2.02-5.29-1.34l-8.9-18.26,14.16,14.77Z"/>
  </g>
  <g>
    <path class="st4" d="M955.56,361.55h-58.97c-4.04,0-7.19-1.13-9.44-3.38-2.25-2.25-3.38-5.4-3.38-9.44v-68.76h26.34v56.18c0,3.42,1.71,5.13,5.13,5.13h40.33v20.28Z"/>
    <path class="st4" d="M961.39,361.55v-68.76c0-4.04,1.12-7.19,3.38-9.44s5.4-3.38,9.44-3.38h46.04c8.86,0,14.96,2.27,18.3,6.82,3.34,4.54,5.01,11.52,5.01,20.92,0,19.35-6.06,29.02-18.18,29.02h-3.5v.47l23.31,24.36h-31.7l-15.73-21.21c-.23-.39-.74-1.07-1.51-2.04-.78-.97-1.32-1.69-1.63-2.16-.31-.47-.7-1.11-1.17-1.92-.47-.82-.8-1.63-.99-2.45-.2-.82-.29-1.65-.29-2.51v-1.75c0-6.14,3.92-9.21,11.77-9.21h3.96c3.5,0,5.92-.66,7.28-1.98,1.36-1.32,2.04-3.73,2.04-7.23s-.66-5.75-1.98-6.99c-1.32-1.24-3.77-1.86-7.34-1.86h-15.04c-3.42,0-5.13,1.71-5.13,5.13v56.18h-26.34Z"/>
    <path class="st0" d="M1165.46,312.13l-12.59,39.39c-.78,2.41-1.57,4.29-2.39,5.65-.82,1.36-2.33,2.58-4.55,3.67-2.21,1.09-5.15,1.63-8.8,1.63-5.21,0-8.84-.91-10.9-2.74-2.06-1.82-3.67-4.56-4.84-8.22l-12.59-39.39c-.62-1.94-1.13-2.91-1.51-2.91-.7,0-1.05.89-1.05,2.68l.82,49.65h-26.57v-68.18c0-9.56,6.68-14.34,20.04-14.34,2.17,0,4.1.14,5.77.41,1.67.27,3.56.82,5.65,1.63,2.1.82,3.96,2.2,5.6,4.14,1.63,1.94,2.95,4.39,3.96,7.34l13.17,39.62c.7,2.49,1.52,3.73,2.45,3.73s1.75-1.24,2.45-3.73l13.17-39.62c1.01-2.95,2.33-5.4,3.96-7.34,1.63-1.94,3.5-3.32,5.59-4.14,2.1-.82,4-1.36,5.71-1.63,1.71-.27,3.61-.41,5.71-.41,13.36,0,20.05,4.78,20.05,14.34v68.18h-26.57l.93-49.65c0-1.79-.35-2.68-1.05-2.68-.47,0-1.01.97-1.63,2.91Z"/>
    <path class="st0" d="M1226.59,280.6c5.32-1.05,12.45-1.57,21.39-1.57s16.06.53,21.39,1.57c5.32,1.05,9.85,3.11,13.58,6.18,3.73,3.07,6.31,7.28,7.75,12.65,1.44,5.36,2.16,12.47,2.16,21.33s-.72,15.97-2.16,21.33c-1.44,5.36-4.02,9.58-7.75,12.65-3.73,3.07-8.26,5.13-13.58,6.18-5.32,1.05-12.45,1.57-21.39,1.57s-16.06-.53-21.39-1.57c-5.32-1.05-9.85-3.11-13.58-6.18-3.73-3.07-6.31-7.28-7.75-12.65s-2.16-12.47-2.16-21.33.72-15.97,2.16-21.33,4.02-9.58,7.75-12.65c3.73-3.07,8.25-5.13,13.58-6.18ZM1233.93,304.21c-2.53,3.26-3.79,8.78-3.79,16.55s1.26,13.29,3.79,16.55c2.52,3.26,7.21,4.9,14.04,4.9s11.52-1.63,14.04-4.9c2.52-3.26,3.79-8.78,3.79-16.55s-1.26-13.29-3.79-16.55c-2.53-3.26-7.21-4.9-14.04-4.9s-11.52,1.63-14.04,4.9Z"/>
    <path class="st0" d="M1331.94,337.89c2.29,2.25,5.84,3.38,10.66,3.38s8.37-1.13,10.66-3.38c2.29-2.25,3.44-5.94,3.44-11.07v-46.85h26.34v48.95c0,12.28-3.36,20.94-10.08,25.99-6.72,5.05-16.84,7.58-30.36,7.58s-23.64-2.52-30.36-7.58c-6.72-5.05-10.08-13.71-10.08-25.99v-48.95h26.34v46.85c0,5.13,1.15,8.82,3.44,11.07Z"/>
    <path class="st0" d="M1394.7,361.55v-68.76c0-4.04,1.12-7.19,3.38-9.44s5.4-3.38,9.44-3.38h46.04c8.86,0,14.96,2.27,18.3,6.82,3.34,4.54,5.01,11.52,5.01,20.92,0,19.35-6.06,29.02-18.18,29.02h-3.5v.47l23.31,24.36h-31.7l-15.73-21.21c-.23-.39-.74-1.07-1.51-2.04-.78-.97-1.32-1.69-1.63-2.16-.31-.47-.7-1.11-1.17-1.92-.47-.82-.8-1.63-.99-2.45-.2-.82-.29-1.65-.29-2.51v-1.75c0-6.14,3.92-9.21,11.77-9.21h3.96c3.5,0,5.92-.66,7.28-1.98,1.36-1.32,2.04-3.73,2.04-7.23s-.66-5.75-1.98-6.99c-1.32-1.24-3.77-1.86-7.34-1.86h-15.04c-3.42,0-5.13,1.71-5.13,5.13v56.18h-26.34Z"/>
    <path class="st0" d="M1478.5,361.55l30.19-72.61c1.47-3.42,3.5-5.92,6.06-7.52,2.56-1.59,6.76-2.39,12.59-2.39,4.74,0,8.6.62,11.6,1.86,2.99,1.25,5.34,3.92,7.05,8.04l30.19,72.61h-27.74l-6.41-16.78h-29.37l-6.41,16.78h-27.74ZM1526.28,305.49l-7.34,20.63h16.78l-7.34-20.63c-.08-.08-.18-.23-.29-.47-.12-.23-.2-.45-.23-.64-.04-.19-.12-.35-.23-.47-.12-.12-.21-.18-.29-.18l-1.05,1.75Z"/>
    <path class="st0" d="M1600.81,280.6c5.32-1.05,12.45-1.57,21.39-1.57s16.06.53,21.39,1.57c5.32,1.05,9.85,3.11,13.58,6.18,3.73,3.07,6.31,7.28,7.75,12.65s2.16,12.47,2.16,21.33-.72,15.97-2.16,21.33-4.02,9.58-7.75,12.65c-3.73,3.07-8.26,5.13-13.58,6.18-5.32,1.05-12.45,1.57-21.39,1.57s-16.06-.53-21.39-1.57c-5.32-1.05-9.85-3.11-13.58-6.18-3.73-3.07-6.31-7.28-7.75-12.65s-2.16-12.47-2.16-21.33.72-15.97,2.16-21.33,4.02-9.58,7.75-12.65c3.73-3.07,8.25-5.13,13.58-6.18ZM1608.16,304.21c-2.53,3.26-3.79,8.78-3.79,16.55s1.26,13.29,3.79,16.55c2.52,3.26,7.21,4.9,14.04,4.9s11.52-1.63,14.04-4.9c2.52-3.26,3.79-8.78,3.79-16.55s-1.26-13.29-3.79-16.55c-2.53-3.26-7.21-4.9-14.04-4.9s-11.52,1.63-14.04,4.9Z"/>
    <g>
      <path class="st3" d="M897.98,391.08c5.26,0,9.79,2.72,11.71,7.78h-4.97c-1.34-2.75-3.73-4.06-6.74-4.06-5,0-8.63,3.65-8.63,9.5s3.63,9.53,8.63,9.53c3.01,0,5.4-1.3,6.74-4.06h4.97c-1.92,5.06-6.45,7.75-11.71,7.75-7.1,0-12.87-5.44-12.87-13.22s5.76-13.22,12.87-13.22Z"/>
      <path class="st3" d="M924.05,417.63c-5.69,0-10-4.17-10-10.61s4.49-10.58,10.18-10.58,10.19,4.13,10.19,10.58-4.64,10.61-10.37,10.61ZM924.05,413.95c3.08,0,6.13-2.27,6.13-6.93s-2.94-6.89-6.02-6.89-5.91,2.23-5.91,6.89,2.68,6.93,5.8,6.93Z"/>
      <path class="st3" d="M948.04,417.63c-5.69,0-10-4.17-10-10.61s4.49-10.58,10.18-10.58,10.19,4.13,10.19,10.58-4.64,10.61-10.37,10.61ZM948.04,413.95c3.08,0,6.13-2.27,6.13-6.93s-2.94-6.89-6.02-6.89-5.91,2.23-5.91,6.89,2.68,6.93,5.8,6.93Z"/>
      <path class="st3" d="M967.51,417.3h-4.13v-20.52h4.13v2.98c1.16-2.05,3.15-3.31,5.98-3.31v4.39h-1.05c-3.04,0-4.93,1.3-4.93,5.66v10.8Z"/>
      <path class="st3" d="M986.25,396.44c2.61,0,5.36,1.27,6.89,3.2v-9.91h4.17v27.56h-4.17v-3.09c-1.27,1.86-3.66,3.43-6.92,3.43-5.26,0-9.42-4.36-9.42-10.69s4.17-10.5,9.46-10.5ZM987.09,400.13c-3.08,0-6.05,2.38-6.05,6.82s2.97,7,6.05,7,6.05-2.49,6.05-6.93-2.94-6.89-6.05-6.89Z"/>
      <path class="st3" d="M1012.21,417.63c-5.73,0-9.97-4.17-9.97-10.61s4.06-10.58,9.97-10.58,9.71,4.06,9.71,10.09c0,.71-.04,1.38-.15,2.09h-15.26c.29,3.39,2.65,5.44,5.69,5.44,2.54,0,3.95-1.27,4.71-2.87h4.46c-1.12,3.58-4.28,6.44-9.17,6.44ZM1006.55,405.2h11.06c-.07-3.17-2.5-5.18-5.58-5.18-2.79,0-5.04,1.94-5.47,5.18Z"/>
      <path class="st3" d="M1041.03,405.83c0-3.76-1.99-5.7-5-5.7s-5.04,1.94-5.04,5.7v11.47h-4.13v-20.52h4.13v2.35c1.34-1.68,3.55-2.68,5.95-2.68,4.67,0,8.19,3.02,8.19,8.75v12.1h-4.1v-11.47Z"/>
      <path class="st3" d="M1059.3,396.44c3.37,0,5.69,1.64,6.92,3.31v-2.98h4.17v20.52h-4.17v-3.05c-1.27,1.75-3.66,3.39-6.99,3.39-5.18,0-9.35-4.36-9.35-10.69s4.17-10.5,9.42-10.5ZM1060.17,400.13c-3.08,0-6.05,2.38-6.05,6.82s2.97,7,6.05,7,6.05-2.49,6.05-6.93-2.94-6.89-6.05-6.89Z"/>
      <path class="st3" d="M1085.11,396.44c4.89,0,8.08,2.5,9.21,6.82h-4.46c-.69-1.97-2.28-3.24-4.75-3.24-3.33,0-5.55,2.53-5.55,7s2.21,7.04,5.55,7.04c2.47,0,3.99-1.12,4.75-3.24h4.46c-1.01,3.69-3.77,6.33-7.97,6.74v1.53c2.68,0,4.71,1.34,4.71,3.91s-2.03,4.06-4.6,4.06h-4.79v-2.68h3.95c1.27,0,2.03-.26,2.03-1.38s-.76-1.38-2.03-1.38h-1.99v-4.1c-4.93-.63-8.3-4.62-8.3-10.5,0-6.41,4.06-10.58,9.79-10.58Z"/>
      <path class="st3" d="M1107.37,396.44c3.37,0,5.69,1.64,6.92,3.31v-2.98h4.17v20.52h-4.17v-3.05c-1.27,1.75-3.66,3.39-6.99,3.39-5.18,0-9.35-4.36-9.35-10.69s4.17-10.5,9.42-10.5ZM1108.24,400.13c-3.08,0-6.05,2.38-6.05,6.82s2.97,7,6.05,7,6.05-2.49,6.05-6.93-2.94-6.89-6.05-6.89ZM1107.08,390.3c1.96,0,2.75,1.64,4.2,1.64.8,0,1.41-.48,1.56-1.56h2.32c-.4,2.94-1.99,4.36-4.1,4.36-1.96,0-2.75-1.68-4.2-1.68-.8,0-1.41.52-1.56,1.6h-2.32c.4-2.94,1.99-4.36,4.1-4.36Z"/>
      <path class="st3" d="M1133.43,417.63c-5.69,0-10-4.17-10-10.61s4.49-10.58,10.18-10.58,10.19,4.13,10.19,10.58-4.64,10.61-10.37,10.61ZM1133.43,413.95c3.08,0,6.13-2.27,6.13-6.93s-2.94-6.89-6.02-6.89-5.91,2.23-5.91,6.89,2.68,6.93,5.8,6.93Z"/>
      <path class="st3" d="M1170.95,397.19c.07-1.9-.98-2.91-2.54-2.91s-2.68,1.12-2.68,2.5.76,2.57,2.54,4.54l6.67,6.82,2.57-4.36h4.46l-3.26,5.74c-.29.52-.62,1.04-.91,1.53l6.13,6.26h-5.4l-3.12-3.2c-2.43,2.49-5.22,3.69-8.74,3.69-5.44,0-9.06-3.09-9.06-7.93,0-3.5,1.92-6.44,5.91-8.12-1.41-1.75-1.92-3.13-1.92-4.95,0-3.39,2.68-5.96,7-5.96s6.74,2.83,6.49,6.37h-4.13ZM1172.69,411.3l-6.67-6.89c-2.94,1.19-4.28,2.98-4.28,5.29,0,2.5,1.96,4.47,4.93,4.47,2.36,0,4.28-.97,6.02-2.87Z"/>
      <path class="st3" d="M1197.81,391.42h14.83v3.46h-10.69v7.64h8.34v3.46h-8.34v11.32h-4.13v-25.88Z"/>
      <path class="st3" d="M1226.01,417.63c-5.69,0-10-4.17-10-10.61s4.49-10.58,10.18-10.58,10.19,4.13,10.19,10.58-4.64,10.61-10.37,10.61ZM1226.01,413.95c3.08,0,6.13-2.27,6.13-6.93s-2.94-6.89-6.02-6.89-5.91,2.23-5.91,6.89,2.68,6.93,5.8,6.93Z"/>
      <path class="st3" d="M1245.48,417.3h-4.13v-20.52h4.13v2.98c1.16-2.05,3.15-3.31,5.98-3.31v4.39h-1.05c-3.04,0-4.93,1.3-4.93,5.66v10.8Z"/>
      <path class="st3" d="M1284.44,405.83c0-3.76-1.99-5.7-5-5.7s-5.04,1.94-5.04,5.7v11.47h-4.1v-11.47c0-3.76-1.99-5.7-5-5.7s-5.04,1.94-5.04,5.7v11.47h-4.13v-20.52h4.13v2.35c1.34-1.68,3.52-2.68,5.91-2.68,3.15,0,5.8,1.38,7.18,4.06,1.23-2.49,4.06-4.06,6.96-4.06,4.68,0,8.23,3.02,8.23,8.75v12.1h-4.1v-11.47Z"/>
      <path class="st3" d="M1302.72,396.44c3.37,0,5.69,1.64,6.92,3.31v-2.98h4.17v20.52h-4.17v-3.05c-1.27,1.75-3.66,3.39-6.99,3.39-5.18,0-9.35-4.36-9.35-10.69s4.17-10.5,9.42-10.5ZM1303.59,400.13c-3.08,0-6.05,2.38-6.05,6.82s2.97,7,6.05,7,6.05-2.49,6.05-6.93-2.94-6.89-6.05-6.89Z"/>
      <path class="st3" d="M1328.53,396.44c4.89,0,8.08,2.5,9.21,6.82h-4.46c-.69-1.97-2.28-3.24-4.75-3.24-3.33,0-5.55,2.53-5.55,7s2.21,7.04,5.55,7.04c2.47,0,3.99-1.12,4.75-3.24h4.46c-1.01,3.69-3.77,6.33-7.97,6.74v1.53c2.68,0,4.71,1.34,4.71,3.91s-2.03,4.06-4.6,4.06h-4.79v-2.68h3.95c1.27,0,2.03-.26,2.03-1.38s-.76-1.38-2.03-1.38h-1.99v-4.1c-4.93-.63-8.3-4.62-8.3-10.5,0-6.41,4.06-10.58,9.79-10.58Z"/>
      <path class="st3" d="M1350.79,396.44c3.37,0,5.69,1.64,6.92,3.31v-2.98h4.17v20.52h-4.17v-3.05c-1.27,1.75-3.66,3.39-6.99,3.39-5.18,0-9.35-4.36-9.35-10.69s4.17-10.5,9.42-10.5ZM1351.66,400.13c-3.08,0-6.05,2.38-6.05,6.82s2.97,7,6.05,7,6.05-2.49,6.05-6.93-2.94-6.89-6.05-6.89ZM1350.5,390.3c1.96,0,2.75,1.64,4.2,1.64.8,0,1.41-.48,1.56-1.56h2.32c-.4,2.94-1.99,4.36-4.1,4.36-1.96,0-2.75-1.68-4.2-1.68-.8,0-1.41.52-1.56,1.6h-2.32c.4-2.94,1.99-4.36,4.1-4.36Z"/>
      <path class="st3" d="M1376.85,417.63c-5.69,0-10-4.17-10-10.61s4.49-10.58,10.18-10.58,10.19,4.13,10.19,10.58-4.64,10.61-10.37,10.61ZM1376.85,413.95c3.08,0,6.13-2.27,6.13-6.93s-2.94-6.89-6.02-6.89-5.91,2.23-5.91,6.89,2.68,6.93,5.8,6.93Z"/>
      <path class="st3" d="M1411.07,417.63c-5.73,0-9.97-4.17-9.97-10.61s4.06-10.58,9.97-10.58,9.71,4.06,9.71,10.09c0,.71-.04,1.38-.15,2.09h-15.26c.29,3.39,2.65,5.44,5.69,5.44,2.54,0,3.95-1.27,4.71-2.87h4.46c-1.12,3.58-4.28,6.44-9.17,6.44ZM1405.41,405.2h11.06c-.07-3.17-2.5-5.18-5.58-5.18-2.79,0-5.04,1.94-5.47,5.18Z"/>
      <path class="st3" d="M1454.02,405.83c0-3.76-1.99-5.7-5-5.7s-5.04,1.94-5.04,5.7v11.47h-4.1v-11.47c0-3.76-1.99-5.7-5-5.7s-5.04,1.94-5.04,5.7v11.47h-4.13v-20.52h4.13v2.35c1.34-1.68,3.52-2.68,5.91-2.68,3.15,0,5.8,1.38,7.18,4.06,1.23-2.49,4.06-4.06,6.96-4.06,4.68,0,8.23,3.02,8.23,8.75v12.1h-4.1v-11.47Z"/>
      <path class="st3" d="M1482.84,417.56c-5.04,0-8.92-2.83-8.92-7.41h4.42c.18,2.12,1.63,3.84,4.5,3.84s4.53-1.6,4.53-3.8c0-6.26-13.38-2.2-13.38-11.73,0-4.54,3.52-7.37,8.66-7.37,4.82,0,8.23,2.61,8.59,7.04h-4.57c-.15-1.75-1.63-3.35-4.24-3.43-2.39-.07-4.24,1.12-4.24,3.61,0,5.85,13.34,2.2,13.34,11.66,0,3.87-3.08,7.6-8.7,7.6Z"/>
      <path class="st3" d="M1505.97,417.63c-5.69,0-10-4.17-10-10.61s4.49-10.58,10.18-10.58,10.19,4.13,10.19,10.58-4.64,10.61-10.37,10.61ZM1505.97,413.95c3.08,0,6.13-2.27,6.13-6.93s-2.94-6.89-6.02-6.89-5.91,2.23-5.91,6.89,2.68,6.93,5.8,6.93Z"/>
      <path class="st3" d="M1521.31,389.74h4.13v27.56h-4.13v-27.56Z"/>
      <path class="st3" d="M1539.83,396.44c2.61,0,5.36,1.27,6.89,3.2v-9.91h4.17v27.56h-4.17v-3.09c-1.27,1.86-3.66,3.43-6.92,3.43-5.26,0-9.42-4.36-9.42-10.69s4.17-10.5,9.46-10.5ZM1540.66,400.13c-3.08,0-6.05,2.38-6.05,6.82s2.97,7,6.05,7,6.05-2.49,6.05-6.93-2.94-6.89-6.05-6.89Z"/>
      <path class="st3" d="M1565.24,396.44c3.37,0,5.69,1.64,6.92,3.31v-2.98h4.17v20.52h-4.17v-3.05c-1.27,1.75-3.66,3.39-6.99,3.39-5.18,0-9.35-4.36-9.35-10.69s4.17-10.5,9.42-10.5ZM1566.11,400.13c-3.08,0-6.05,2.38-6.05,6.82s2.97,7,6.05,7,6.05-2.49,6.05-6.93-2.94-6.89-6.05-6.89Z"/>
      <path class="st3" d="M1590.73,396.44c2.61,0,5.36,1.27,6.89,3.2v-9.91h4.17v27.56h-4.17v-3.09c-1.27,1.86-3.66,3.43-6.92,3.43-5.26,0-9.42-4.36-9.42-10.69s4.17-10.5,9.46-10.5ZM1591.56,400.13c-3.08,0-6.05,2.38-6.05,6.82s2.97,7,6.05,7,6.05-2.49,6.05-6.93-2.94-6.89-6.05-6.89Z"/>
      <path class="st3" d="M1626.18,417.3h-4.13v-2.46c-1.31,1.75-3.55,2.76-5.91,2.76-4.68,0-8.23-3.02-8.23-8.75v-12.07h4.1v11.43c0,3.76,1.99,5.7,5,5.7s5.04-1.94,5.04-5.7v-11.43h4.13v20.52Z"/>
      <path class="st3" d="M1636.62,417.3h-4.13v-20.52h4.13v2.98c1.16-2.05,3.15-3.31,5.98-3.31v4.39h-1.05c-3.04,0-4.93,1.3-4.93,5.66v10.8Z"/>
      <path class="st3" d="M1655.32,396.44c3.37,0,5.69,1.64,6.92,3.31v-2.98h4.17v20.52h-4.17v-3.05c-1.27,1.75-3.66,3.39-6.99,3.39-5.18,0-9.35-4.36-9.35-10.69s4.17-10.5,9.42-10.5ZM1656.19,400.13c-3.08,0-6.05,2.38-6.05,6.82s2.97,7,6.05,7,6.05-2.49,6.05-6.93-2.94-6.89-6.05-6.89Z"/>
    </g>
    <path class="st0" d="M1494.85,270.44s35.17-32.9,93.45-27.38c43.6,1.12,69.98,28.56,77.28,11.19,0,0,2.25-9.51-15.72-21.3l7.86-10.1s28.63,12.91,23.58,34.8c0,0-4.03,20.58-35.74,10.6-49.51-16.73-93.81-29.48-150.7,2.19Z"/>
    <path class="st4" d="M1654.36,220.26l-8.79,10.01-10.2-6.8s-1.94-1.94-3.55.11l-3.12,3.88s-1.62,1.4-3.98-.54l-34.03-23.8s-1.83-1.4,0-3.23l1.72-1.83s1.51-1.83-.65-3.66l-11.95-8.29s-2.05-2.48-6.46,0l-12.17,6.68s-2.48,1.57-4.63.32c0,0-3.13-2.27,0-4.52l15.18-9.26s4.95-4.09,9.91-1.51l15.83,9.26s2.58,1.72,3.77-.32l1.64-2.48s1.81-2.76,4.93-.86l8.08,4.52s3.34,1.94,4.95,0l3.45-3.34s3.55-3.55,8.72-1.08c5.17,2.48,25.41,13.35,25.41,13.35,0,0,4.2,2.26,1.29,5.92,0,0-2.2,3.2-6.68.82l-19.71-10.19s-3.55-2.05-4.74-.97c0,0-2.58,1.29-.22,2.69l15.08,8.46s3.66,1.34,2.05,3.38l-2.48,2.69s-2.8,2.48-.54,3.98l8.72,4.52,3.16,2.07Z"/>
    <path class="st4" d="M1564.5,203.92s-2.45-2.4-.17-4.82c0,0,3.16-2.11,5.32,1.19l9.41,18-14.56-14.37Z"/>
    <path class="st4" d="M1551.98,208.77s-1.19-3.22,1.9-4.43c0,0,3.75-.56,4.31,3.34l.84,20.29-7.05-19.21Z"/>
    <path class="st4" d="M1541.29,203.8s1.24-3.2,4.36-2.05c0,0,3.18,2.07,1,5.36l-12.83,15.74,7.47-19.05Z"/>
    <path class="st4" d="M1537.9,192.15s3.34-.79,4.17,2.42c0,0,.1,3.79-3.84,3.87l-20.25-1.63,19.92-4.67Z"/>
    <path class="st4" d="M1545.9,182.99s2.38,2.47.03,4.82c0,0-3.21,2.02-5.29-1.34l-8.9-18.26,14.16,14.77Z"/>
  </g>
  <g>
    <path class="st1" d="M1817.45,361.55h-58.97c-4.04,0-7.19-1.13-9.44-3.38-2.25-2.25-3.38-5.4-3.38-9.44v-68.76h26.34v56.18c0,3.42,1.71,5.13,5.13,5.13h40.33v20.28Z"/>
    <path class="st1" d="M1823.28,361.55v-68.76c0-4.04,1.12-7.19,3.38-9.44s5.4-3.38,9.44-3.38h46.04c8.86,0,14.96,2.27,18.3,6.82,3.34,4.54,5.01,11.52,5.01,20.92,0,19.35-6.06,29.02-18.18,29.02h-3.5v.47l23.31,24.36h-31.7l-15.73-21.21c-.23-.39-.74-1.07-1.51-2.04-.78-.97-1.32-1.69-1.63-2.16-.31-.47-.7-1.11-1.17-1.92-.47-.82-.8-1.63-.99-2.45-.2-.82-.29-1.65-.29-2.51v-1.75c0-6.14,3.92-9.21,11.77-9.21h3.96c3.5,0,5.92-.66,7.28-1.98,1.36-1.32,2.04-3.73,2.04-7.23s-.66-5.75-1.98-6.99c-1.32-1.24-3.77-1.86-7.34-1.86h-15.04c-3.42,0-5.13,1.71-5.13,5.13v56.18h-26.34Z"/>
    <path class="st0" d="M2027.35,312.13l-12.59,39.39c-.78,2.41-1.57,4.29-2.39,5.65-.82,1.36-2.33,2.58-4.55,3.67-2.21,1.09-5.15,1.63-8.8,1.63-5.21,0-8.84-.91-10.9-2.74-2.06-1.82-3.67-4.56-4.84-8.22l-12.59-39.39c-.62-1.94-1.13-2.91-1.51-2.91-.7,0-1.05.89-1.05,2.68l.82,49.65h-26.57v-68.18c0-9.56,6.68-14.34,20.04-14.34,2.17,0,4.1.14,5.77.41,1.67.27,3.56.82,5.65,1.63,2.1.82,3.96,2.2,5.6,4.14,1.63,1.94,2.95,4.39,3.96,7.34l13.17,39.62c.7,2.49,1.52,3.73,2.45,3.73s1.75-1.24,2.45-3.73l13.17-39.62c1.01-2.95,2.33-5.4,3.96-7.34,1.63-1.94,3.5-3.32,5.59-4.14,2.1-.82,4-1.36,5.71-1.63,1.71-.27,3.61-.41,5.71-.41,13.36,0,20.05,4.78,20.05,14.34v68.18h-26.57l.93-49.65c0-1.79-.35-2.68-1.05-2.68-.47,0-1.01.97-1.63,2.91Z"/>
    <path class="st0" d="M2088.48,280.6c5.32-1.05,12.45-1.57,21.39-1.57s16.06.53,21.39,1.57c5.32,1.05,9.85,3.11,13.58,6.18,3.73,3.07,6.31,7.28,7.75,12.65,1.44,5.36,2.16,12.47,2.16,21.33s-.72,15.97-2.16,21.33c-1.44,5.36-4.02,9.58-7.75,12.65-3.73,3.07-8.26,5.13-13.58,6.18-5.32,1.05-12.45,1.57-21.39,1.57s-16.06-.53-21.39-1.57c-5.32-1.05-9.85-3.11-13.58-6.18-3.73-3.07-6.31-7.28-7.75-12.65s-2.16-12.47-2.16-21.33.72-15.97,2.16-21.33,4.02-9.58,7.75-12.65c3.73-3.07,8.25-5.13,13.58-6.18ZM2095.82,304.21c-2.53,3.26-3.79,8.78-3.79,16.55s1.26,13.29,3.79,16.55c2.52,3.26,7.21,4.9,14.04,4.9s11.52-1.63,14.04-4.9c2.52-3.26,3.79-8.78,3.79-16.55s-1.26-13.29-3.79-16.55c-2.53-3.26-7.21-4.9-14.04-4.9s-11.52,1.63-14.04,4.9Z"/>
    <path class="st0" d="M2193.83,337.89c2.29,2.25,5.84,3.38,10.66,3.38s8.37-1.13,10.66-3.38c2.29-2.25,3.44-5.94,3.44-11.07v-46.85h26.34v48.95c0,12.28-3.36,20.94-10.08,25.99-6.72,5.05-16.84,7.58-30.36,7.58s-23.64-2.52-30.36-7.58c-6.72-5.05-10.08-13.71-10.08-25.99v-48.95h26.34v46.85c0,5.13,1.15,8.82,3.44,11.07Z"/>
    <path class="st0" d="M2256.59,361.55v-68.76c0-4.04,1.12-7.19,3.38-9.44s5.4-3.38,9.44-3.38h46.04c8.86,0,14.96,2.27,18.3,6.82,3.34,4.54,5.01,11.52,5.01,20.92,0,19.35-6.06,29.02-18.18,29.02h-3.5v.47l23.31,24.36h-31.7l-15.73-21.21c-.23-.39-.74-1.07-1.51-2.04-.78-.97-1.32-1.69-1.63-2.16-.31-.47-.7-1.11-1.17-1.92-.47-.82-.8-1.63-.99-2.45-.2-.82-.29-1.65-.29-2.51v-1.75c0-6.14,3.92-9.21,11.77-9.21h3.96c3.5,0,5.92-.66,7.28-1.98,1.36-1.32,2.04-3.73,2.04-7.23s-.66-5.75-1.98-6.99c-1.32-1.24-3.77-1.86-7.34-1.86h-15.04c-3.42,0-5.13,1.71-5.13,5.13v56.18h-26.34Z"/>
    <path class="st0" d="M2340.39,361.55l30.19-72.61c1.47-3.42,3.5-5.92,6.06-7.52,2.56-1.59,6.76-2.39,12.59-2.39,4.74,0,8.6.62,11.6,1.86,2.99,1.25,5.34,3.92,7.05,8.04l30.19,72.61h-27.74l-6.41-16.78h-29.37l-6.41,16.78h-27.74ZM2388.17,305.49l-7.34,20.63h16.78l-7.34-20.63c-.08-.08-.18-.23-.29-.47-.12-.23-.2-.45-.23-.64-.04-.19-.12-.35-.23-.47-.12-.12-.21-.18-.29-.18l-1.05,1.75Z"/>
    <path class="st0" d="M2462.7,280.6c5.32-1.05,12.45-1.57,21.39-1.57s16.06.53,21.39,1.57c5.32,1.05,9.85,3.11,13.58,6.18,3.73,3.07,6.31,7.28,7.75,12.65s2.16,12.47,2.16,21.33-.72,15.97-2.16,21.33-4.02,9.58-7.75,12.65c-3.73,3.07-8.26,5.13-13.58,6.18-5.32,1.05-12.45,1.57-21.39,1.57s-16.06-.53-21.39-1.57c-5.32-1.05-9.85-3.11-13.58-6.18-3.73-3.07-6.31-7.28-7.75-12.65s-2.16-12.47-2.16-21.33.72-15.97,2.16-21.33,4.02-9.58,7.75-12.65c3.73-3.07,8.25-5.13,13.58-6.18ZM2470.05,304.21c-2.53,3.26-3.79,8.78-3.79,16.55s1.26,13.29,3.79,16.55c2.52,3.26,7.21,4.9,14.04,4.9s11.52-1.63,14.04-4.9c2.52-3.26,3.79-8.78,3.79-16.55s-1.26-13.29-3.79-16.55c-2.53-3.26-7.21-4.9-14.04-4.9s-11.52,1.63-14.04,4.9Z"/>
    <g>
      <path class="st1" d="M1759.87,391.08c5.26,0,9.79,2.72,11.71,7.78h-4.97c-1.34-2.75-3.73-4.06-6.74-4.06-5,0-8.63,3.65-8.63,9.5s3.63,9.53,8.63,9.53c3.01,0,5.4-1.3,6.74-4.06h4.97c-1.92,5.06-6.45,7.75-11.71,7.75-7.1,0-12.87-5.44-12.87-13.22s5.76-13.22,12.87-13.22Z"/>
      <path class="st1" d="M1785.94,417.63c-5.69,0-10-4.17-10-10.61s4.49-10.58,10.18-10.58,10.19,4.13,10.19,10.58-4.64,10.61-10.37,10.61ZM1785.94,413.95c3.08,0,6.13-2.27,6.13-6.93s-2.94-6.89-6.02-6.89-5.91,2.23-5.91,6.89,2.68,6.93,5.8,6.93Z"/>
      <path class="st1" d="M1809.93,417.63c-5.69,0-10-4.17-10-10.61s4.49-10.58,10.18-10.58,10.19,4.13,10.19,10.58-4.64,10.61-10.37,10.61ZM1809.93,413.95c3.08,0,6.13-2.27,6.13-6.93s-2.94-6.89-6.02-6.89-5.91,2.23-5.91,6.89,2.68,6.93,5.8,6.93Z"/>
      <path class="st1" d="M1829.4,417.3h-4.13v-20.52h4.13v2.98c1.16-2.05,3.15-3.31,5.98-3.31v4.39h-1.05c-3.04,0-4.93,1.3-4.93,5.66v10.8Z"/>
      <path class="st1" d="M1848.14,396.44c2.61,0,5.36,1.27,6.89,3.2v-9.91h4.17v27.56h-4.17v-3.09c-1.27,1.86-3.66,3.43-6.92,3.43-5.26,0-9.42-4.36-9.42-10.69s4.17-10.5,9.46-10.5ZM1848.98,400.13c-3.08,0-6.05,2.38-6.05,6.82s2.97,7,6.05,7,6.05-2.49,6.05-6.93-2.94-6.89-6.05-6.89Z"/>
      <path class="st1" d="M1874.1,417.63c-5.73,0-9.97-4.17-9.97-10.61s4.06-10.58,9.97-10.58,9.71,4.06,9.71,10.09c0,.71-.04,1.38-.15,2.09h-15.26c.29,3.39,2.65,5.44,5.69,5.44,2.54,0,3.95-1.27,4.71-2.87h4.46c-1.12,3.58-4.28,6.44-9.17,6.44ZM1868.44,405.2h11.06c-.07-3.17-2.5-5.18-5.58-5.18-2.79,0-5.04,1.94-5.47,5.18Z"/>
      <path class="st1" d="M1902.92,405.83c0-3.76-1.99-5.7-5-5.7s-5.04,1.94-5.04,5.7v11.47h-4.13v-20.52h4.13v2.35c1.34-1.68,3.55-2.68,5.95-2.68,4.67,0,8.19,3.02,8.19,8.75v12.1h-4.1v-11.47Z"/>
      <path class="st1" d="M1921.19,396.44c3.37,0,5.69,1.64,6.92,3.31v-2.98h4.17v20.52h-4.17v-3.05c-1.27,1.75-3.66,3.39-6.99,3.39-5.18,0-9.35-4.36-9.35-10.69s4.17-10.5,9.42-10.5ZM1922.06,400.13c-3.08,0-6.05,2.38-6.05,6.82s2.97,7,6.05,7,6.05-2.49,6.05-6.93-2.94-6.89-6.05-6.89Z"/>
      <path class="st1" d="M1947,396.44c4.89,0,8.08,2.5,9.21,6.82h-4.46c-.69-1.97-2.28-3.24-4.75-3.24-3.33,0-5.55,2.53-5.55,7s2.21,7.04,5.55,7.04c2.47,0,3.99-1.12,4.75-3.24h4.46c-1.01,3.69-3.77,6.33-7.97,6.74v1.53c2.68,0,4.71,1.34,4.71,3.91s-2.03,4.06-4.6,4.06h-4.79v-2.68h3.95c1.27,0,2.03-.26,2.03-1.38s-.76-1.38-2.03-1.38h-1.99v-4.1c-4.93-.63-8.3-4.62-8.3-10.5,0-6.41,4.06-10.58,9.79-10.58Z"/>
      <path class="st1" d="M1969.26,396.44c3.37,0,5.69,1.64,6.92,3.31v-2.98h4.17v20.52h-4.17v-3.05c-1.27,1.75-3.66,3.39-6.99,3.39-5.18,0-9.35-4.36-9.35-10.69s4.17-10.5,9.42-10.5ZM1970.13,400.13c-3.08,0-6.05,2.38-6.05,6.82s2.97,7,6.05,7,6.05-2.49,6.05-6.93-2.94-6.89-6.05-6.89ZM1968.97,390.3c1.96,0,2.75,1.64,4.2,1.64.8,0,1.41-.48,1.56-1.56h2.32c-.4,2.94-1.99,4.36-4.1,4.36-1.96,0-2.75-1.68-4.2-1.68-.8,0-1.41.52-1.56,1.6h-2.32c.4-2.94,1.99-4.36,4.1-4.36Z"/>
      <path class="st1" d="M1995.32,417.63c-5.69,0-10-4.17-10-10.61s4.49-10.58,10.18-10.58,10.19,4.13,10.19,10.58-4.64,10.61-10.37,10.61ZM1995.32,413.95c3.08,0,6.13-2.27,6.13-6.93s-2.94-6.89-6.02-6.89-5.91,2.23-5.91,6.89,2.68,6.93,5.8,6.93Z"/>
      <path class="st1" d="M2032.84,397.19c.07-1.9-.98-2.91-2.54-2.91s-2.68,1.12-2.68,2.5.76,2.57,2.54,4.54l6.67,6.82,2.57-4.36h4.46l-3.26,5.74c-.29.52-.62,1.04-.91,1.53l6.13,6.26h-5.4l-3.12-3.2c-2.43,2.49-5.22,3.69-8.74,3.69-5.44,0-9.06-3.09-9.06-7.93,0-3.5,1.92-6.44,5.91-8.12-1.41-1.75-1.92-3.13-1.92-4.95,0-3.39,2.68-5.96,7-5.96s6.74,2.83,6.49,6.37h-4.13ZM2034.58,411.3l-6.67-6.89c-2.94,1.19-4.28,2.98-4.28,5.29,0,2.5,1.96,4.47,4.93,4.47,2.36,0,4.28-.97,6.02-2.87Z"/>
      <path class="st1" d="M2059.7,391.42h14.83v3.46h-10.69v7.64h8.34v3.46h-8.34v11.32h-4.13v-25.88Z"/>
      <path class="st1" d="M2087.9,417.63c-5.69,0-10-4.17-10-10.61s4.49-10.58,10.18-10.58,10.19,4.13,10.19,10.58-4.64,10.61-10.37,10.61ZM2087.9,413.95c3.08,0,6.13-2.27,6.13-6.93s-2.94-6.89-6.02-6.89-5.91,2.23-5.91,6.89,2.68,6.93,5.8,6.93Z"/>
      <path class="st1" d="M2107.37,417.3h-4.13v-20.52h4.13v2.98c1.16-2.05,3.15-3.31,5.98-3.31v4.39h-1.05c-3.04,0-4.93,1.3-4.93,5.66v10.8Z"/>
      <path class="st1" d="M2146.33,405.83c0-3.76-1.99-5.7-5-5.7s-5.04,1.94-5.04,5.7v11.47h-4.1v-11.47c0-3.76-1.99-5.7-5-5.7s-5.04,1.94-5.04,5.7v11.47h-4.13v-20.52h4.13v2.35c1.34-1.68,3.52-2.68,5.91-2.68,3.15,0,5.8,1.38,7.18,4.06,1.23-2.49,4.06-4.06,6.96-4.06,4.68,0,8.23,3.02,8.23,8.75v12.1h-4.1v-11.47Z"/>
      <path class="st1" d="M2164.61,396.44c3.37,0,5.69,1.64,6.92,3.31v-2.98h4.17v20.52h-4.17v-3.05c-1.27,1.75-3.66,3.39-6.99,3.39-5.18,0-9.35-4.36-9.35-10.69s4.17-10.5,9.42-10.5ZM2165.48,400.13c-3.08,0-6.05,2.38-6.05,6.82s2.97,7,6.05,7,6.05-2.49,6.05-6.93-2.94-6.89-6.05-6.89Z"/>
      <path class="st1" d="M2190.42,396.44c4.89,0,8.08,2.5,9.21,6.82h-4.46c-.69-1.97-2.28-3.24-4.75-3.24-3.33,0-5.55,2.53-5.55,7s2.21,7.04,5.55,7.04c2.47,0,3.99-1.12,4.75-3.24h4.46c-1.01,3.69-3.77,6.33-7.97,6.74v1.53c2.68,0,4.71,1.34,4.71,3.91s-2.03,4.06-4.6,4.06h-4.79v-2.68h3.95c1.27,0,2.03-.26,2.03-1.38s-.76-1.38-2.03-1.38h-1.99v-4.1c-4.93-.63-8.3-4.62-8.3-10.5,0-6.41,4.06-10.58,9.79-10.58Z"/>
      <path class="st1" d="M2212.68,396.44c3.37,0,5.69,1.64,6.92,3.31v-2.98h4.17v20.52h-4.17v-3.05c-1.27,1.75-3.66,3.39-6.99,3.39-5.18,0-9.35-4.36-9.35-10.69s4.17-10.5,9.42-10.5ZM2213.55,400.13c-3.08,0-6.05,2.38-6.05,6.82s2.97,7,6.05,7,6.05-2.49,6.05-6.93-2.94-6.89-6.05-6.89ZM2212.39,390.3c1.96,0,2.75,1.64,4.2,1.64.8,0,1.41-.48,1.56-1.56h2.32c-.4,2.94-1.99,4.36-4.1,4.36-1.96,0-2.75-1.68-4.2-1.68-.8,0-1.41.52-1.56,1.6h-2.32c.4-2.94,1.99-4.36,4.1-4.36Z"/>
      <path class="st1" d="M2238.74,417.63c-5.69,0-10-4.17-10-10.61s4.49-10.58,10.18-10.58,10.19,4.13,10.19,10.58-4.64,10.61-10.37,10.61ZM2238.74,413.95c3.08,0,6.13-2.27,6.13-6.93s-2.94-6.89-6.02-6.89-5.91,2.23-5.91,6.89,2.68,6.93,5.8,6.93Z"/>
      <path class="st1" d="M2272.96,417.63c-5.73,0-9.97-4.17-9.97-10.61s4.06-10.58,9.97-10.58,9.71,4.06,9.71,10.09c0,.71-.04,1.38-.15,2.09h-15.26c.29,3.39,2.65,5.44,5.69,5.44,2.54,0,3.95-1.27,4.71-2.87h4.46c-1.12,3.58-4.28,6.44-9.17,6.44ZM2267.3,405.2h11.06c-.07-3.17-2.5-5.18-5.58-5.18-2.79,0-5.04,1.94-5.47,5.18Z"/>
      <path class="st1" d="M2315.91,405.83c0-3.76-1.99-5.7-5-5.7s-5.04,1.94-5.04,5.7v11.47h-4.1v-11.47c0-3.76-1.99-5.7-5-5.7s-5.04,1.94-5.04,5.7v11.47h-4.13v-20.52h4.13v2.35c1.34-1.68,3.52-2.68,5.91-2.68,3.15,0,5.8,1.38,7.18,4.06,1.23-2.49,4.06-4.06,6.96-4.06,4.68,0,8.23,3.02,8.23,8.75v12.1h-4.1v-11.47Z"/>
      <path class="st1" d="M2344.73,417.56c-5.04,0-8.92-2.83-8.92-7.41h4.42c.18,2.12,1.63,3.84,4.5,3.84s4.53-1.6,4.53-3.8c0-6.26-13.38-2.2-13.38-11.73,0-4.54,3.52-7.37,8.66-7.37,4.82,0,8.23,2.61,8.59,7.04h-4.57c-.15-1.75-1.63-3.35-4.24-3.43-2.39-.07-4.24,1.12-4.24,3.61,0,5.85,13.34,2.2,13.34,11.66,0,3.87-3.08,7.6-8.7,7.6Z"/>
      <path class="st1" d="M2367.86,417.63c-5.69,0-10-4.17-10-10.61s4.49-10.58,10.18-10.58,10.19,4.13,10.19,10.58-4.64,10.61-10.37,10.61ZM2367.86,413.95c3.08,0,6.13-2.27,6.13-6.93s-2.94-6.89-6.02-6.89-5.91,2.23-5.91,6.89,2.68,6.93,5.8,6.93Z"/>
      <path class="st1" d="M2383.2,389.74h4.13v27.56h-4.13v-27.56Z"/>
      <path class="st1" d="M2401.72,396.44c2.61,0,5.36,1.27,6.89,3.2v-9.91h4.17v27.56h-4.17v-3.09c-1.27,1.86-3.66,3.43-6.92,3.43-5.26,0-9.42-4.36-9.42-10.69s4.17-10.5,9.46-10.5ZM2402.55,400.13c-3.08,0-6.05,2.38-6.05,6.82s2.97,7,6.05,7,6.05-2.49,6.05-6.93-2.94-6.89-6.05-6.89Z"/>
      <path class="st1" d="M2427.13,396.44c3.37,0,5.69,1.64,6.92,3.31v-2.98h4.17v20.52h-4.17v-3.05c-1.27,1.75-3.66,3.39-6.99,3.39-5.18,0-9.35-4.36-9.35-10.69s4.17-10.5,9.42-10.5ZM2428,400.13c-3.08,0-6.05,2.38-6.05,6.82s2.97,7,6.05,7,6.05-2.49,6.05-6.93-2.94-6.89-6.05-6.89Z"/>
      <path class="st1" d="M2452.62,396.44c2.61,0,5.36,1.27,6.89,3.2v-9.91h4.17v27.56h-4.17v-3.09c-1.27,1.86-3.66,3.43-6.92,3.43-5.26,0-9.42-4.36-9.42-10.69s4.17-10.5,9.46-10.5ZM2453.45,400.13c-3.08,0-6.05,2.38-6.05,6.82s2.97,7,6.05,7,6.05-2.49,6.05-6.93-2.94-6.89-6.05-6.89Z"/>
      <path class="st1" d="M2488.07,417.3h-4.13v-2.46c-1.31,1.75-3.55,2.76-5.91,2.76-4.68,0-8.23-3.02-8.23-8.75v-12.07h4.1v11.43c0,3.76,1.99,5.7,5,5.7s5.04-1.94,5.04-5.7v-11.43h4.13v20.52Z"/>
      <path class="st1" d="M2498.51,417.3h-4.13v-20.52h4.13v2.98c1.16-2.05,3.15-3.31,5.98-3.31v4.39h-1.05c-3.04,0-4.93,1.3-4.93,5.66v10.8Z"/>
      <path class="st1" d="M2517.21,396.44c3.37,0,5.69,1.64,6.92,3.31v-2.98h4.17v20.52h-4.17v-3.05c-1.27,1.75-3.66,3.39-6.99,3.39-5.18,0-9.35-4.36-9.35-10.69s4.17-10.5,9.42-10.5ZM2518.08,400.13c-3.08,0-6.05,2.38-6.05,6.82s2.97,7,6.05,7,6.05-2.49,6.05-6.93-2.94-6.89-6.05-6.89Z"/>
    </g>
    <path class="st0" d="M2356.74,270.44s35.17-32.9,93.45-27.38c43.6,1.12,69.98,28.56,77.28,11.19,0,0,2.25-9.51-15.72-21.3l7.86-10.1s28.63,12.91,23.58,34.8c0,0-4.03,20.58-35.74,10.6-49.51-16.73-93.81-29.48-150.7,2.19Z"/>
    <g>
      <path class="st1" d="M2516.25,220.26l-8.79,10.01-10.2-6.8s-1.94-1.94-3.55.11l-3.12,3.88s-1.62,1.4-3.98-.54l-34.03-23.8s-1.83-1.4,0-3.23l1.72-1.83s1.51-1.83-.65-3.66l-11.95-8.29s-2.05-2.48-6.46,0l-12.17,6.68s-2.48,1.57-4.63.32c0,0-3.13-2.27,0-4.52l15.18-9.26s4.95-4.09,9.91-1.51l15.83,9.26s2.58,1.72,3.77-.32l1.64-2.48s1.81-2.76,4.93-.86l8.08,4.52s3.34,1.94,4.95,0l3.45-3.34s3.55-3.55,8.72-1.08c5.17,2.48,25.41,13.35,25.41,13.35,0,0,4.2,2.26,1.29,5.92,0,0-2.2,3.2-6.68.82l-19.71-10.19s-3.55-2.05-4.74-.97c0,0-2.58,1.29-.22,2.69l15.08,8.46s3.66,1.34,2.05,3.38l-2.48,2.69s-2.8,2.48-.54,3.98l8.72,4.52,3.16,2.07Z"/>
      <path class="st1" d="M2426.39,203.92s-2.45-2.4-.17-4.82c0,0,3.16-2.11,5.32,1.19l9.41,18-14.56-14.37Z"/>
      <path class="st1" d="M2413.87,208.77s-1.19-3.22,1.9-4.43c0,0,3.75-.56,4.31,3.34l.84,20.29-7.05-19.21Z"/>
      <path class="st1" d="M2403.18,203.8s1.24-3.2,4.36-2.05c0,0,3.18,2.07,1,5.36l-12.83,15.74,7.47-19.05Z"/>
      <path class="st1" d="M2399.79,192.15s3.34-.79,4.17,2.42c0,0,.1,3.79-3.84,3.87l-20.25-1.63,19.92-4.67Z"/>
      <path class="st1" d="M2407.79,182.99s2.38,2.47.03,4.82c0,0-3.21,2.02-5.29-1.34l-8.9-18.26,14.16,14.77Z"/>
    </g>
  </g>
</svg>